<?xml version="1.0" encoding="UTF-8" standalone="no"?><!DOCTYPE svg PUBLIC "-//W3C//DTD SVG 1.1//EN" "http://www.w3.org/Graphics/SVG/1.1/DTD/svg11.dtd"><svg width="2048px" height="2048px" version="1.1" xmlns="http://www.w3.org/2000/svg" xmlns:xlink="http://www.w3.org/1999/xlink" xml:space="preserve" xmlns:serif="http://www.serif.com/" style="fill-rule:evenodd;clip-rule:evenodd;stroke-linecap:round;stroke-linejoin:round;stroke-miterlimit:1.5;"><g transform="matrix(1.47011,0,0,1.46714,-535.788,-529.7)"><path d="M1061,70C1605.74,70 2048,513.156 2048,1059C2048,1604.84 1605.74,2048 1061,2048C516.26,2048 74,1604.84 74,1059C74,513.156 516.26,70 1061,70ZM1061,366.7C1442.32,366.7 1751.9,676.909 1751.9,1059C1751.9,1441.09 1442.32,1751.3 1061,1751.3C679.682,1751.3 370.1,1441.09 370.1,1059C370.1,676.909 679.682,366.7 1061,366.7Z" style="fill:rgb(60,60,59);"/></g><g transform="matrix(1,0,0,1,0,-30)"><g opacity="0.6"><g transform="matrix(1.71839,0,0,1.1474,-773.437,-96.0462)"><path d="M1046,136C1286.08,136 1481,378.047 1481,855.453C1481,1332.86 1046,1866 1046,1866C1046,1866 611,1332.86 611,855.453C611,378.047 805.917,136 1046,136Z" style="fill:none;stroke:rgb(49,72,106);stroke-width:33.81px;"/></g><g transform="matrix(1,0,0,1,0,150)"><g transform="matrix(1.4405,0,0,0.701847,-542.541,132.976)"><path d="M1087.5,446L1369,635.5L1087.5,825L806,635.5L1087.5,446Z" style="fill:none;stroke:rgb(49,72,106);stroke-width:43.6px;"/></g><g transform="matrix(1.4405,0,0,0.701847,-542.541,232.976)"><path d="M1183.65,766.583L1087.5,825L877.791,682.519" style="fill:none;stroke:rgb(49,72,106);stroke-width:43.6px;"/></g><path d="M1388,579L1388,868" style="fill:none;stroke:rgb(49,72,106);stroke-width:49.4px;"/><g transform="matrix(1,0,0,1,139,-18)"><path d="M1249,852L1325,1004L1173,1004L1249,852Z" style="fill:none;stroke:rgb(49,72,106);stroke-width:49.4px;"/></g></g></g></g><g transform="matrix(1.3981,0,0,1.3981,-441.951,-102.076)"><g transform="matrix(459.299,0,0,459.299,1517.03,574)"></g><text x="583.852px" y="574px" style="font-family:'Swiss721BT-BoldCondensedOutline', 'Swis721 BdCnOul BT', fantasy;font-size:459.299px;fill:rgb(60,60,59);">Studi</text></g><g transform="matrix(1.30438,0,0,1.30438,-745.185,746.198)"><g transform="matrix(459.299,0,0,459.299,2047.08,574)"></g><text x="666.046px" y="574px" style="font-family:'Swiss721BT-BlackCondensed', 'Swis721 BlkCn BT', sans-serif;font-stretch:condensed;font-size:459.299px;fill:rgb(250,181,38);">Agency</text></g></svg>