<?xml version="1.0" encoding="UTF-8" standalone="no"?><!DOCTYPE svg PUBLIC "-//W3C//DTD SVG 1.1//EN" "http://www.w3.org/Graphics/SVG/1.1/DTD/svg11.dtd"><svg width="2048px" height="2048px" version="1.1" xmlns="http://www.w3.org/2000/svg" xmlns:xlink="http://www.w3.org/1999/xlink" xml:space="preserve" xmlns:serif="http://www.serif.com/" style="fill-rule:evenodd;clip-rule:evenodd;stroke-linecap:round;stroke-linejoin:round;stroke-miterlimit:1.5;"><g transform="matrix(1.47011,0,0,1.46714,-535.788,-529.7)"><path d="M1061,70C1605.74,70 2048,513.156 2048,1059C2048,1604.84 1605.74,2048 1061,2048C516.26,2048 74,1604.84 74,1059C74,513.156 516.26,70 1061,70ZM1061,366.7C1442.32,366.7 1751.9,676.909 1751.9,1059C1751.9,1441.09 1442.32,1751.3 1061,1751.3C679.682,1751.3 370.1,1441.09 370.1,1059C370.1,676.909 679.682,366.7 1061,366.7Z"/></g><g opacity="0.45"><g transform="matrix(1.71839,0,0,1.1474,-773.437,-128.046)"><path d="M1046,136C1286.08,136 1481,378.047 1481,855.453C1481,1332.86 1046,1866 1046,1866C1046,1866 611,1332.86 611,855.453C611,378.047 805.917,136 1046,136Z" style="fill:none;stroke:rgb(82,82,82);stroke-width:33.81px;"/></g><g transform="matrix(1.4405,0,0,0.701847,-542.541,132.976)"><path d="M1087.5,446L1369,635.5L1087.5,825L806,635.5L1087.5,446Z" style="fill:none;stroke:rgb(82,82,82);stroke-width:43.6px;"/></g><g transform="matrix(1.4405,0,0,0.701847,-542.541,232.976)"><path d="M1183.65,766.583L1087.5,825L877.791,682.519" style="fill:none;stroke:rgb(82,82,82);stroke-width:43.6px;"/></g><path d="M1388,579L1388,868" style="fill:none;stroke:rgb(82,82,82);stroke-width:49.4px;"/><g transform="matrix(1,0,0,1,139,-18)"><path d="M1249,852L1325,1004L1173,1004L1249,852Z" style="fill:none;stroke:rgb(82,82,82);stroke-width:49.4px;"/></g></g><g transform="matrix(1.3981,0,0,1.3981,-441.951,-42.076)"><g transform="matrix(459.299,0,0,459.299,583.852,574)"><path d="M0.46,-0.546L0.46,-0.554C0.46,-0.617 0.444,-0.664 0.411,-0.698C0.378,-0.731 0.33,-0.747 0.268,-0.747C0.209,-0.747 0.163,-0.731 0.131,-0.7C0.098,-0.669 0.082,-0.625 0.082,-0.568C0.082,-0.529 0.089,-0.498 0.104,-0.474C0.118,-0.45 0.155,-0.417 0.214,-0.375L0.287,-0.324C0.326,-0.298 0.351,-0.274 0.363,-0.255C0.376,-0.236 0.382,-0.212 0.382,-0.185C0.382,-0.149 0.372,-0.122 0.352,-0.102C0.331,-0.083 0.303,-0.073 0.266,-0.073C0.232,-0.073 0.207,-0.083 0.191,-0.104C0.174,-0.125 0.166,-0.156 0.166,-0.198L0.166,-0.241L0.074,-0.241C0.074,-0.237 0.073,-0.233 0.073,-0.228L0.073,-0.208C0.073,-0.141 0.089,-0.09 0.122,-0.057C0.154,-0.023 0.202,-0.006 0.266,-0.006C0.335,-0.006 0.387,-0.022 0.422,-0.053C0.457,-0.085 0.474,-0.133 0.474,-0.196C0.474,-0.242 0.465,-0.28 0.448,-0.309C0.431,-0.338 0.396,-0.369 0.344,-0.404L0.266,-0.456C0.265,-0.456 0.265,-0.457 0.264,-0.458C0.2,-0.5 0.168,-0.542 0.168,-0.581C0.168,-0.611 0.177,-0.634 0.194,-0.652C0.212,-0.67 0.235,-0.679 0.264,-0.679C0.302,-0.679 0.329,-0.668 0.348,-0.646C0.366,-0.624 0.375,-0.591 0.375,-0.546L0.46,-0.546ZM0.483,-0.522L0.35,-0.522L0.35,-0.544C0.35,-0.584 0.343,-0.612 0.33,-0.63C0.316,-0.647 0.294,-0.656 0.264,-0.656C0.241,-0.656 0.224,-0.649 0.211,-0.636C0.198,-0.623 0.192,-0.605 0.192,-0.581C0.192,-0.549 0.22,-0.515 0.275,-0.479C0.277,-0.477 0.279,-0.476 0.28,-0.475L0.357,-0.423C0.413,-0.386 0.45,-0.352 0.469,-0.319C0.488,-0.287 0.498,-0.246 0.498,-0.196C0.498,-0.126 0.478,-0.073 0.438,-0.037C0.399,-0 0.341,0.018 0.265,0.018C0.193,0.018 0.139,-0.002 0.102,-0.041C0.066,-0.08 0.048,-0.139 0.048,-0.218C0.048,-0.223 0.048,-0.228 0.048,-0.235C0.049,-0.241 0.049,-0.251 0.05,-0.264L0.19,-0.264L0.19,-0.202C0.19,-0.164 0.196,-0.137 0.208,-0.121C0.22,-0.104 0.24,-0.096 0.267,-0.096C0.297,-0.096 0.319,-0.104 0.335,-0.119C0.35,-0.134 0.358,-0.156 0.358,-0.185C0.358,-0.208 0.352,-0.227 0.342,-0.243C0.331,-0.26 0.307,-0.28 0.272,-0.305L0.2,-0.356C0.138,-0.399 0.099,-0.434 0.082,-0.462C0.066,-0.49 0.057,-0.525 0.057,-0.568C0.057,-0.631 0.076,-0.681 0.113,-0.716C0.151,-0.752 0.202,-0.77 0.268,-0.77C0.338,-0.77 0.391,-0.751 0.428,-0.713C0.465,-0.676 0.484,-0.621 0.484,-0.55L0.484,-0.545C0.483,-0.537 0.483,-0.529 0.483,-0.522Z" style="fill-rule:nonzero;"/></g><g transform="matrix(459.299,0,0,459.299,835.48,574)"><path d="M0.09,-0.696L0.09,-0.542L0.037,-0.542L0.037,-0.491L0.089,-0.491L0.089,-0.129C0.089,-0.08 0.095,-0.049 0.108,-0.037C0.121,-0.024 0.145,-0.018 0.18,-0.018C0.186,-0.018 0.197,-0.019 0.213,-0.021C0.218,-0.021 0.222,-0.022 0.225,-0.022L0.225,-0.078C0.205,-0.082 0.19,-0.089 0.183,-0.1C0.175,-0.111 0.171,-0.129 0.171,-0.154L0.171,-0.491L0.224,-0.491L0.224,-0.542L0.171,-0.542L0.171,-0.696L0.09,-0.696ZM0.065,-0.719L0.195,-0.719L0.195,-0.565L0.248,-0.565L0.248,-0.468L0.195,-0.468L0.195,-0.155C0.195,-0.133 0.198,-0.119 0.203,-0.112C0.209,-0.105 0.22,-0.101 0.235,-0.101C0.236,-0.101 0.247,-0.102 0.249,-0.102L0.249,-0C0.235,0.002 0.222,0.003 0.21,0.004C0.198,0.004 0.187,0.005 0.178,0.005C0.135,0.005 0.105,-0.004 0.089,-0.021C0.072,-0.038 0.064,-0.074 0.064,-0.129L0.064,-0.468L0.013,-0.468L0.013,-0.565L0.065,-0.565L0.065,-0.719Z" style="fill-rule:nonzero;"/></g><g transform="matrix(459.299,0,0,459.299,960.396,574)"><path d="M0.055,-0.121L0.055,-0.565L0.181,-0.565L0.181,-0.201C0.181,-0.17 0.185,-0.148 0.194,-0.135C0.202,-0.122 0.216,-0.115 0.236,-0.115C0.257,-0.115 0.273,-0.123 0.282,-0.139C0.292,-0.154 0.297,-0.18 0.297,-0.215L0.297,-0.565L0.428,-0.565L0.428,-0L0.302,-0L0.302,-0.029C0.302,-0.034 0.302,-0.04 0.304,-0.046C0.305,-0.052 0.307,-0.059 0.31,-0.066C0.291,-0.038 0.271,-0.018 0.25,-0.005C0.228,0.009 0.205,0.015 0.179,0.015C0.139,0.015 0.109,0.003 0.087,-0.02C0.066,-0.044 0.055,-0.077 0.055,-0.121ZM0.079,-0.138C0.079,-0.094 0.087,-0.062 0.104,-0.04C0.12,-0.019 0.145,-0.008 0.179,-0.008C0.206,-0.008 0.23,-0.015 0.252,-0.03C0.275,-0.044 0.299,-0.069 0.324,-0.105L0.324,-0.023L0.403,-0.023L0.403,-0.541L0.321,-0.541L0.321,-0.214C0.321,-0.172 0.314,-0.14 0.3,-0.121C0.285,-0.101 0.263,-0.091 0.233,-0.091C0.207,-0.091 0.188,-0.1 0.175,-0.117C0.162,-0.135 0.156,-0.162 0.156,-0.198L0.156,-0.541L0.079,-0.541L0.079,-0.138Z" style="fill-rule:nonzero;"/></g><g transform="matrix(459.299,0,0,459.299,1182.65,574)"><path d="M0.429,-0.752L0.429,-0L0.305,-0L0.305,-0.026C0.305,-0.031 0.305,-0.036 0.306,-0.04C0.306,-0.045 0.307,-0.049 0.309,-0.054C0.295,-0.031 0.278,-0.014 0.258,-0.002C0.238,0.009 0.216,0.015 0.19,0.015C0.135,0.015 0.097,-0.007 0.074,-0.05C0.052,-0.093 0.041,-0.17 0.041,-0.28C0.041,-0.394 0.052,-0.472 0.073,-0.515C0.095,-0.559 0.132,-0.58 0.185,-0.58C0.209,-0.58 0.231,-0.576 0.251,-0.566C0.27,-0.557 0.288,-0.543 0.304,-0.524C0.302,-0.539 0.3,-0.552 0.299,-0.563C0.298,-0.575 0.298,-0.585 0.298,-0.594L0.298,-0.752L0.429,-0.752ZM0.404,-0.729L0.322,-0.729L0.322,-0.483C0.299,-0.509 0.276,-0.528 0.255,-0.54C0.233,-0.551 0.21,-0.557 0.185,-0.557C0.141,-0.557 0.11,-0.538 0.092,-0.498C0.074,-0.459 0.065,-0.386 0.065,-0.28C0.065,-0.178 0.074,-0.106 0.093,-0.066C0.112,-0.026 0.144,-0.006 0.19,-0.006C0.214,-0.006 0.236,-0.012 0.257,-0.025C0.278,-0.038 0.301,-0.058 0.326,-0.087L0.326,-0.023L0.404,-0.023L0.404,-0.729ZM0.302,-0.261C0.302,-0.349 0.297,-0.405 0.287,-0.428C0.278,-0.452 0.26,-0.464 0.234,-0.464C0.211,-0.464 0.195,-0.454 0.187,-0.433C0.178,-0.412 0.174,-0.361 0.174,-0.281C0.174,-0.203 0.178,-0.154 0.187,-0.132C0.195,-0.11 0.211,-0.099 0.234,-0.099C0.26,-0.099 0.278,-0.109 0.288,-0.128C0.297,-0.147 0.302,-0.191 0.302,-0.261ZM0.234,-0.487C0.269,-0.487 0.293,-0.473 0.306,-0.446C0.319,-0.419 0.326,-0.358 0.326,-0.262C0.326,-0.185 0.319,-0.135 0.306,-0.112C0.293,-0.089 0.269,-0.077 0.234,-0.077C0.202,-0.077 0.18,-0.09 0.168,-0.115C0.156,-0.141 0.15,-0.196 0.15,-0.281C0.15,-0.369 0.156,-0.425 0.168,-0.45C0.181,-0.475 0.203,-0.487 0.234,-0.487Z" style="fill-rule:nonzero;"/></g><g transform="matrix(459.299,0,0,459.299,1405.79,574)"><path d="M0.081,-0.542L0.081,-0.023L0.162,-0.023L0.162,-0.542L0.081,-0.542ZM0.081,-0.729L0.081,-0.658L0.162,-0.658L0.162,-0.729L0.081,-0.729ZM0.056,-0.565L0.186,-0.565L0.186,-0L0.056,-0L0.056,-0.565ZM0.056,-0.752L0.186,-0.752L0.186,-0.635L0.056,-0.635L0.056,-0.752Z" style="fill-rule:nonzero;"/></g></g><g transform="matrix(1.30438,0,0,1.30438,-745.185,746.198)"><g transform="matrix(459.299,0,0,459.299,666.046,574)"><path d="M0.224,-0.28L0.325,-0.28L0.275,-0.608L0.224,-0.28ZM0.007,-0L0.171,-0.752L0.38,-0.752L0.542,-0L0.366,-0L0.344,-0.144L0.206,-0.144L0.184,-0L0.007,-0Z" style="fill-rule:nonzero;"/></g><g transform="matrix(459.299,0,0,459.299,918.571,574)"><path d="M0.197,-0.357L0.197,-0.316C0.197,-0.242 0.2,-0.195 0.207,-0.175C0.214,-0.155 0.227,-0.145 0.245,-0.145C0.264,-0.145 0.277,-0.154 0.284,-0.172C0.291,-0.189 0.295,-0.227 0.295,-0.284L0.295,-0.307C0.295,-0.368 0.291,-0.407 0.284,-0.423C0.277,-0.439 0.265,-0.447 0.246,-0.447C0.229,-0.447 0.217,-0.44 0.209,-0.426C0.201,-0.411 0.197,-0.389 0.197,-0.357ZM0.453,-0.565L0.453,-0.059C0.453,-0.007 0.45,0.031 0.445,0.056C0.439,0.081 0.43,0.102 0.417,0.119C0.399,0.143 0.374,0.16 0.344,0.172C0.314,0.184 0.277,0.19 0.234,0.19C0.168,0.19 0.119,0.176 0.086,0.149C0.054,0.122 0.038,0.081 0.038,0.025L0.194,0.025C0.194,0.046 0.198,0.062 0.205,0.071C0.213,0.081 0.225,0.086 0.241,0.086C0.261,0.086 0.275,0.08 0.283,0.067C0.291,0.054 0.295,0.029 0.295,-0.009L0.295,-0.075C0.274,-0.056 0.254,-0.043 0.236,-0.034C0.217,-0.025 0.198,-0.021 0.178,-0.021C0.151,-0.021 0.127,-0.028 0.105,-0.043C0.084,-0.058 0.068,-0.079 0.056,-0.107C0.05,-0.122 0.045,-0.143 0.042,-0.17C0.04,-0.198 0.038,-0.233 0.038,-0.277C0.038,-0.319 0.039,-0.356 0.041,-0.389C0.043,-0.422 0.046,-0.449 0.05,-0.469C0.056,-0.501 0.071,-0.527 0.094,-0.547C0.118,-0.568 0.145,-0.578 0.176,-0.578C0.201,-0.578 0.224,-0.572 0.246,-0.56C0.267,-0.547 0.289,-0.528 0.309,-0.502L0.309,-0.565L0.453,-0.565Z" style="fill-rule:nonzero;"/></g><g transform="matrix(459.299,0,0,459.299,1152.26,574)"><path d="M0.305,-0.198L0.453,-0.198L0.453,-0.184C0.453,-0.118 0.436,-0.068 0.401,-0.035C0.367,-0.002 0.315,0.015 0.247,0.015C0.213,0.015 0.181,0.01 0.153,0C0.125,-0.009 0.104,-0.023 0.088,-0.04C0.07,-0.06 0.058,-0.086 0.05,-0.119C0.043,-0.152 0.039,-0.205 0.039,-0.277C0.039,-0.357 0.043,-0.412 0.051,-0.444C0.058,-0.475 0.071,-0.501 0.09,-0.522C0.108,-0.541 0.13,-0.556 0.158,-0.565C0.185,-0.575 0.217,-0.58 0.254,-0.58C0.291,-0.58 0.323,-0.575 0.35,-0.564C0.377,-0.554 0.399,-0.538 0.416,-0.517C0.43,-0.5 0.441,-0.479 0.447,-0.454C0.453,-0.43 0.456,-0.388 0.456,-0.329L0.456,-0.261L0.199,-0.261C0.199,-0.26 0.199,-0.257 0.199,-0.255C0.197,-0.231 0.197,-0.215 0.197,-0.205C0.197,-0.165 0.201,-0.138 0.209,-0.122C0.218,-0.107 0.232,-0.099 0.253,-0.099C0.271,-0.099 0.284,-0.105 0.293,-0.117C0.303,-0.129 0.307,-0.147 0.307,-0.171C0.307,-0.176 0.307,-0.183 0.306,-0.193C0.305,-0.195 0.305,-0.197 0.305,-0.198ZM0.203,-0.359L0.309,-0.359L0.309,-0.362C0.31,-0.376 0.311,-0.386 0.311,-0.392C0.311,-0.42 0.307,-0.44 0.298,-0.453C0.289,-0.467 0.275,-0.473 0.256,-0.473C0.237,-0.473 0.223,-0.467 0.215,-0.454C0.206,-0.441 0.202,-0.42 0.202,-0.39C0.202,-0.382 0.202,-0.376 0.202,-0.371C0.203,-0.367 0.203,-0.362 0.203,-0.359Z" style="fill-rule:nonzero;"/></g><g transform="matrix(459.299,0,0,459.299,1381.01,574)"><path d="M0.054,-0L0.054,-0.565L0.202,-0.565L0.202,-0.498C0.219,-0.525 0.239,-0.544 0.261,-0.557C0.283,-0.57 0.309,-0.576 0.339,-0.576C0.382,-0.576 0.414,-0.562 0.435,-0.532C0.455,-0.503 0.465,-0.457 0.465,-0.394L0.465,-0L0.308,-0L0.308,-0.349C0.308,-0.394 0.305,-0.423 0.299,-0.434C0.293,-0.445 0.283,-0.45 0.268,-0.45C0.25,-0.45 0.237,-0.442 0.227,-0.425C0.217,-0.407 0.212,-0.384 0.212,-0.353L0.212,-0L0.054,-0Z" style="fill-rule:nonzero;"/></g><g transform="matrix(459.299,0,0,459.299,1618.51,574)"><path d="M0.295,-0.222L0.45,-0.222C0.45,-0.219 0.451,-0.202 0.451,-0.2C0.451,-0.128 0.434,-0.074 0.401,-0.038C0.367,-0.003 0.316,0.015 0.248,0.015C0.171,0.015 0.117,-0.007 0.085,-0.051C0.054,-0.094 0.038,-0.172 0.038,-0.282C0.038,-0.393 0.054,-0.47 0.085,-0.514C0.117,-0.558 0.171,-0.58 0.248,-0.58C0.317,-0.58 0.368,-0.562 0.4,-0.527C0.433,-0.492 0.449,-0.437 0.449,-0.362L0.449,-0.352L0.297,-0.352L0.297,-0.368C0.297,-0.402 0.293,-0.426 0.286,-0.44C0.279,-0.455 0.266,-0.462 0.249,-0.462C0.229,-0.462 0.216,-0.452 0.209,-0.433C0.202,-0.414 0.198,-0.364 0.198,-0.282C0.198,-0.204 0.202,-0.154 0.209,-0.133C0.216,-0.112 0.229,-0.101 0.248,-0.101C0.265,-0.101 0.277,-0.109 0.284,-0.124C0.292,-0.139 0.296,-0.163 0.296,-0.196C0.296,-0.198 0.295,-0.219 0.295,-0.222Z" style="fill-rule:nonzero;"/></g><g transform="matrix(459.299,0,0,459.299,1845.47,574)"><path d="M0.008,-0.565L0.164,-0.565L0.219,-0.201L0.275,-0.565L0.431,-0.565L0.319,-0.046C0.297,0.054 0.273,0.118 0.247,0.147C0.22,0.176 0.177,0.19 0.119,0.19C0.111,0.19 0.101,0.189 0.091,0.188C0.08,0.187 0.068,0.186 0.054,0.184L0.054,0.066C0.055,0.066 0.056,0.066 0.057,0.066C0.068,0.067 0.076,0.068 0.081,0.068C0.099,0.068 0.112,0.065 0.121,0.058C0.129,0.051 0.134,0.041 0.134,0.027C0.134,0.018 0.131,-0.001 0.124,-0.031C0.122,-0.042 0.12,-0.05 0.119,-0.055L0.008,-0.565Z" style="fill-rule:nonzero;"/></g></g></svg>